<svg width="100" height="77" viewBox="0 0 100 77" fill="none" xmlns="http://www.w3.org/2000/svg">
<path d="M14.5597 68.9714C33.9721 79.1213 65.4463 79.1213 84.8586 68.9714C104.271 58.8215 104.271 42.3881 84.8586 32.2476C65.4463 22.1071 33.9721 22.0977 14.5597 32.2476C-4.85259 42.3975 -4.85259 58.8286 14.5597 68.9714Z" fill="#F5F5F5"/>
<path d="M25.2834 22.3218L29.9618 19.6215L25.2834 16.9211L20.5625 19.6215L25.2834 22.3218Z" stroke="#EBEBEB" stroke-width="1.08419" stroke-linecap="round" stroke-linejoin="round"/>
<path d="M21.6506 19.6239L25.2857 9.11755V21.7223L21.6506 19.6239Z" fill="#E0E0E0"/>
<path d="M25.2859 21.7223L28.9186 19.6239L25.2859 9.11755V21.7223Z" fill="#E6E6E6"/>
<path d="M19.5664 25.617L24.2448 22.9167L19.5664 20.2163L14.8455 22.9167L19.5664 25.617Z" stroke="#EBEBEB" stroke-width="1.08419" stroke-linecap="round" stroke-linejoin="round"/>
<path d="M15.9338 22.9192L19.5666 7.31665V25.0176L15.9338 22.9192Z" fill="#E0E0E0"/>
<path d="M19.5664 25.0176L23.1991 22.9192L19.5664 7.31665V25.0176Z" fill="#E6E6E6"/>
<path d="M13.8495 28.9123L18.5279 26.2119L13.8495 23.5116L9.12622 26.2119L13.8495 28.9123Z" stroke="#EBEBEB" stroke-width="1.08419" stroke-linecap="round" stroke-linejoin="round"/>
<path d="M10.2168 26.2142L13.8495 16.9211V28.3127L10.2168 26.2142Z" fill="#E0E0E0"/>
<path d="M13.8494 28.3127L17.4821 26.2142L13.8494 16.9211V28.3127Z" fill="#E6E6E6"/>
<path d="M8.13244 32.2075L12.8108 29.5071L8.13244 26.8068L3.40918 29.5071L8.13244 32.2075Z" stroke="#EBEBEB" stroke-width="1.08419" stroke-linecap="round" stroke-linejoin="round"/>
<path d="M4.49731 29.5094L8.1324 13.7322V31.6078L4.49731 29.5094Z" fill="#E0E0E0"/>
<path d="M8.13257 31.6078L11.7653 29.5094L8.13257 13.7322V31.6078Z" fill="#E6E6E6"/>
<path d="M70.4836 18.7318L95.4336 33.1353" stroke="#EBEBEB" stroke-width="1.08419" stroke-miterlimit="10" stroke-linecap="round"/>
<path d="M95.4335 31.608C95.4033 29.8 95.2764 27.9948 95.0534 26.2003C94.8174 24.2505 94.3453 20.9601 92.4687 19.8743C90.5922 18.7885 89.884 20.7523 89.6126 21.7178C89.2585 22.9712 87.4197 22.1781 87.1648 20.1127C86.9099 18.0473 86.7423 11.4663 84.5376 10.1988C82.333 8.93123 81.6225 11.988 81.3723 12.8425C80.8789 14.5208 79.432 14.0581 78.9599 12.9463C78.4878 11.8346 77.199 11.5631 76.7127 13.1281C76.2265 14.6931 75.9267 16.4894 74.3523 15.5664C72.9691 14.7568 73.604 13.2815 72.2562 12.5805C71.1893 12.0281 70.6936 14.6624 70.6936 17.3273L95.4335 31.608Z" fill="#E0E0E0"/>
<path d="M93.6208 17.8725C93.6208 18.1605 93.3612 18.2431 93.0449 18.0613L91.1565 16.9661C91.0013 16.8781 90.8685 16.7554 90.7686 16.6076C90.6687 16.4597 90.6043 16.2908 90.5806 16.114C90.5806 15.8284 90.8402 15.7434 91.1565 15.9275L93.0449 17.0227C93.2 17.1102 93.3328 17.2325 93.4327 17.3799C93.5327 17.5274 93.5971 17.696 93.6208 17.8725Z" fill="#E6E6E6"/>
<path d="M85.8691 8.6125C85.8691 8.90047 85.6118 8.98308 85.2932 8.80133L83.4048 7.70608C83.2492 7.61852 83.1162 7.49593 83.0162 7.34803C82.9162 7.20012 82.8521 7.03096 82.8289 6.85396C82.8289 6.56835 83.0861 6.48337 83.4048 6.66749L85.2932 7.76273C85.4486 7.84991 85.5815 7.9721 85.6815 8.1196C85.7815 8.2671 85.8457 8.43585 85.8691 8.6125Z" fill="#E6E6E6"/>
<path d="M79.7295 10.3166C79.7295 10.6046 79.4723 10.6872 79.156 10.5054L77.2676 9.41018C77.112 9.32262 76.979 9.20003 76.879 9.05213C76.779 8.90422 76.7149 8.73506 76.6917 8.55806C76.6917 8.27245 76.9489 8.18747 77.2676 8.37159L79.156 9.46684C79.3108 9.55443 79.4432 9.67677 79.5427 9.82423C79.6423 9.97169 79.7062 10.1402 79.7295 10.3166Z" fill="#E6E6E6"/>
<path d="M73.9087 10.8809C73.9087 11.1689 73.6515 11.2515 73.3328 11.0674L71.4444 9.97451C71.2895 9.8864 71.1571 9.76361 71.0576 9.61578C70.9581 9.46794 70.8942 9.29907 70.8708 9.12239C70.8708 8.83678 71.1281 8.7518 71.4444 8.93592L73.3328 10.0288C73.4881 10.1167 73.621 10.2393 73.7209 10.3872C73.8209 10.535 73.8851 10.704 73.9087 10.8809Z" fill="#E6E6E6"/>
<path d="M69.4451 16.6049V1" stroke="#EBEBEB" stroke-width="1.08419" stroke-miterlimit="10" stroke-linecap="round"/>
<path d="M8.96786 51.1216C8.96786 51.1216 9.35497 47.6565 8.28097 44.3566C7.2707 41.2361 5.24071 39.5814 4.01092 39.0857C1.68588 38.158 1.47816 40.7191 3.22017 42.4918C4.49717 43.7948 7.57048 46.481 8.09922 51.0366L8.96786 51.1216Z" fill="#A3A3A3"/>
<path opacity="0.7" d="M8.96786 51.1216C8.96786 51.1216 9.35497 47.6565 8.28097 44.3566C7.2707 41.2361 5.24071 39.5814 4.01092 39.0857C1.68588 38.158 1.47816 40.7191 3.22017 42.4918C4.49717 43.7948 7.57048 46.481 8.09922 51.0366L8.96786 51.1216Z" fill="white"/>
<path d="M3.38281 39.8009C4.78728 40.7451 8.56163 43.4714 8.69854 51.0956" stroke="#FAFAFA" stroke-width="1.08419" stroke-miterlimit="10" stroke-linecap="round"/>
<path d="M7.97872 53.4892C7.25642 49.9958 5.78114 48.7282 3.14452 47.378C2.01623 46.8021 0.694374 46.16 0.217564 45.4259C-0.259247 44.6918 -0.0184807 43.7052 1.60551 43.7264C4.57259 43.7665 7.95275 47.3426 8.4036 51.261L7.97872 53.4892Z" fill="#A3A3A3"/>
<path opacity="0.8" d="M7.97872 53.4892C7.25642 49.9958 5.78114 48.7282 3.14452 47.378C2.01623 46.8021 0.694374 46.16 0.217564 45.4259C-0.259247 44.6918 -0.0184807 43.7052 1.60551 43.7264C4.57259 43.7665 7.95275 47.3426 8.4036 51.261L7.97872 53.4892Z" fill="white"/>
<path d="M1.35522 44.4865C3.59529 44.7909 7.1336 47.4016 8.25717 52.0399" stroke="#FAFAFA" stroke-width="1.08419" stroke-miterlimit="10" stroke-linecap="round"/>
<path d="M90.7337 49.4858C91.6425 47.7391 92.3483 42.8388 91.1798 40.5728C90.0114 38.3067 88.2741 38.4885 88.005 39.2226C87.769 39.9 88.352 41.1109 89.1074 42.5532C89.8627 43.9954 90.5 47.0852 89.7848 48.5251L90.7337 49.4858Z" fill="#A3A3A3"/>
<path opacity="0.7" d="M90.7337 49.4858C91.6425 47.7391 92.3483 42.8388 91.1798 40.5728C90.0114 38.3067 88.2741 38.4885 88.005 39.2226C87.769 39.9 88.352 41.1109 89.1074 42.5532C89.8627 43.9954 90.5 47.0852 89.7848 48.5251L90.7337 49.4858Z" fill="white"/>
<path d="M89.1521 39.3407C89.8956 39.9379 92.0248 43.5895 90.5353 48.6007" stroke="#FAFAFA" stroke-width="1.08419" stroke-miterlimit="10" stroke-linecap="round"/>
<path d="M90.4456 51.3365C89.898 50.2412 88.6989 48.4284 89.5156 47.1844C90.3323 45.9405 91.1868 47.0404 91.843 46.2285C92.4992 45.4165 91.7486 44.1041 92.3151 43.3959C93.4103 42.0033 94.2034 43.6202 95.0626 43.4077C95.6834 43.2543 96.3751 41.8781 98.1619 42.0457C99.9488 42.2133 99.8591 43.6296 99.0636 44.2952C98.2681 44.9609 97.324 45.6242 97.9377 46.6227C98.4806 47.5078 98.7615 49.1436 96.9038 49.7786C95.1287 50.3852 96.0068 51.1547 95.7236 52.0234C95.4403 52.892 93.7644 53.7158 91.9823 53.0454L90.4456 51.3365Z" fill="#A3A3A3"/>
<path opacity="0.8" d="M90.4456 51.3365C89.898 50.2412 88.6989 48.4284 89.5156 47.1844C90.3323 45.9405 91.1868 47.0404 91.843 46.2285C92.4992 45.4165 91.7486 44.1041 92.3151 43.3959C93.4103 42.0033 94.2034 43.6202 95.0626 43.4077C95.6834 43.2543 96.3751 41.8781 98.1619 42.0457C99.9488 42.2133 99.8591 43.6296 99.0636 44.2952C98.2681 44.9609 97.324 45.6242 97.9377 46.6227C98.4806 47.5078 98.7615 49.1436 96.9038 49.7786C95.1287 50.3852 96.0068 51.1547 95.7236 52.0234C95.4403 52.892 93.7644 53.7158 91.9823 53.0454L90.4456 51.3365Z" fill="white"/>
<path d="M98.4074 42.8481C96.4718 43.3674 91.8359 47.1347 91.4441 51.8627" stroke="#FAFAFA" stroke-width="1.08419" stroke-miterlimit="10" stroke-linecap="round"/>
<path d="M97.0124 47.8122C96.0564 47.5951 93.6275 47.5644 92.7188 48.0058" stroke="#FAFAFA" stroke-width="1.08419" stroke-miterlimit="10" stroke-linecap="round"/>
<path d="M93.2593 43.8113C93.2593 43.8113 93.9674 45.1827 93.8659 46.337" stroke="#FAFAFA" stroke-width="1.08419" stroke-miterlimit="10" stroke-linecap="round"/>
<path d="M66.8555 30.4156C66.5391 29.3202 65.9736 28.3127 65.2032 27.4721C64.2927 26.4792 63.2278 25.6399 62.0496 24.9866C60.6816 24.2117 59.227 23.6008 57.7158 23.1667C56.0512 22.6862 54.3436 22.37 52.6173 22.2225C50.8341 22.0596 49.0399 22.0596 47.2567 22.2225C45.5312 22.37 43.8243 22.6862 42.1605 23.1667C40.6485 23.6004 39.193 24.2112 37.8244 24.9866C36.6462 25.6456 35.5821 26.4905 34.6732 27.4887C33.9035 28.3298 33.338 29.337 33.0208 30.4321C32.7388 31.4452 32.7388 32.516 33.0208 33.529C33.3355 34.6245 33.9013 35.6316 34.6732 36.4702C35.5827 37.4692 36.6476 38.3149 37.8267 38.9746C39.1937 39.7493 40.6476 40.3594 42.1581 40.7921C43.8227 41.2747 45.5303 41.5941 47.2567 41.7458C49.04 41.9063 50.834 41.9063 52.6173 41.7458C54.3446 41.5935 56.053 41.2733 57.7182 40.7898C59.2287 40.3571 60.6826 39.747 62.0496 38.9722C63.2292 38.3132 64.2941 37.4674 65.2032 36.4678C65.974 35.6284 66.5396 34.6217 66.8555 33.5267C67.1379 32.5089 67.1379 31.4334 66.8555 30.4156Z" fill="#37474F"/>
<path d="M32.8083 30.4204H67.0655V32.1671L32.8083 32.0704V30.4204Z" fill="#37474F"/>
<path d="M47.2566 20.6575L49.9334 30.4156L42.1604 21.6111C43.8239 21.1274 45.5308 20.808 47.2566 20.6575Z" fill="#455A64"/>
<path d="M52.6172 20.6577L49.9404 30.4157L47.2637 20.6529C49.0446 20.4921 50.8365 20.4936 52.6172 20.6577Z" fill="#455A64"/>
<path d="M57.7157 21.6112L49.9404 30.4156L52.6172 20.6528C54.3439 20.8049 56.0516 21.1259 57.7157 21.6112Z" fill="#455A64"/>
<path d="M65.2008 25.9309C65.9708 26.7728 66.5362 27.7808 66.8531 28.8767L49.9429 30.4158L65.2008 25.9309Z" fill="#455A64"/>
<path d="M66.8555 28.8789C67.1352 29.8915 67.1352 30.9609 66.8555 31.9735L49.9429 30.4156L66.8555 28.8789Z" fill="#455A64"/>
<path d="M66.8555 31.9736C66.5391 33.0691 65.9736 34.0765 65.2032 34.9171L49.9429 30.4323L66.8555 31.9736Z" fill="#455A64"/>
<path d="M65.2032 34.9169C64.294 35.9157 63.229 36.7607 62.0497 37.419L49.9382 30.4155L65.2032 34.9169Z" fill="#455A64"/>
<path d="M49.9406 30.4275L57.7183 39.239C56.0529 39.7197 54.3444 40.036 52.6173 40.1832L49.9382 30.4204L49.9406 30.4275Z" fill="#455A64"/>
<path d="M49.9381 30.4298L52.6172 40.1926C50.834 40.3555 49.0397 40.3555 47.2566 40.1926L49.9381 30.4298Z" fill="#455A64"/>
<path d="M49.9335 30.4274L47.2521 40.1902C45.525 40.0429 43.8165 39.7267 42.1511 39.246L49.9335 30.4274Z" fill="#455A64"/>
<path d="M49.9334 30.4274L42.1439 39.2389C40.6337 38.8044 39.1799 38.1935 37.8125 37.419L49.9334 30.4274Z" fill="#455A64"/>
<path d="M49.9312 30.4155L34.6709 34.9004C33.8994 34.0606 33.3337 33.0529 33.0186 31.9569L49.9312 30.4155Z" fill="#455A64"/>
<path d="M49.9311 30.4156L33.0209 31.9735C32.7388 30.9612 32.7388 29.8911 33.0209 28.8789L49.9311 30.4156Z" fill="#455A64"/>
<path d="M49.931 30.4155L33.0208 28.8694C33.3384 27.7738 33.9037 26.7659 34.6731 25.9236L49.931 30.4155Z" fill="#455A64"/>
<path d="M37.8243 23.4333L49.931 30.4156L34.6731 25.9307C35.5823 24.9342 36.6464 24.0909 37.8243 23.4333Z" fill="#455A64"/>
<path d="M62.0495 23.4336L49.9404 30.4158L57.7157 21.6066C59.2275 22.042 60.6823 22.6552 62.0495 23.4336Z" fill="#455A64"/>
<path d="M62.0496 23.4333C63.2279 24.0902 64.2921 24.9336 65.2008 25.9307L49.9429 30.4156L62.0496 23.4333Z" fill="#455A64"/>
<path d="M49.9334 30.4155L37.8196 37.4095C36.6406 36.7507 35.5757 35.9058 34.666 34.9075L49.9263 30.4226L49.9334 30.4155Z" fill="#455A64"/>
<path d="M42.1606 21.6111L49.9336 30.4156L37.8245 23.4239C39.193 22.6501 40.6485 22.0415 42.1606 21.6111Z" fill="#455A64"/>
<path d="M49.9404 30.4274L62.0495 37.419C60.6821 38.1935 59.2283 38.8044 57.7181 39.2389L49.9404 30.4274Z" fill="#455A64"/>
<path d="M39.5781 20.5678L49.1969 26.1196L48.7249 18.2711C45.1865 18.4222 42.1817 19.1775 39.5781 20.5678Z" fill="#A3A3A3"/>
<path opacity="0.2" d="M39.5781 20.5678L49.1969 26.1196L48.7249 18.2711C45.1865 18.4222 42.1817 19.1775 39.5781 20.5678Z" fill="white"/>
<path d="M49.1969 26.1196V29.1505L39.5781 23.5963V20.5679L49.1969 26.1196Z" fill="#A3A3A3"/>
<path opacity="0.1" d="M49.1969 26.1196V29.1505L39.5781 23.5963V20.5679L49.1969 26.1196Z" fill="black"/>
<path d="M61.6673 21.3468L50.6274 26.3273V29.3558L61.6673 24.3753V21.3468Z" fill="#A3A3A3"/>
<path opacity="0.3" d="M61.6673 21.3468L50.6274 26.3273V29.3558L61.6673 24.3753V21.3468Z" fill="black"/>
<path d="M61.6673 21.3468C58.6955 19.3239 54.7323 18.257 50.1389 18.2428L50.434 23.1502L50.6275 26.3273L61.6673 21.3468Z" fill="#A3A3A3"/>
<path opacity="0.1" d="M61.6673 21.3468C58.6955 19.3239 54.7323 18.257 50.1389 18.2428L50.434 23.1502L50.6275 26.3273L61.6673 21.3468Z" fill="black"/>
<path d="M50.1365 18.2428V21.2713L50.6274 29.3558V26.3273L50.1365 18.2428Z" fill="#263238"/>
<path d="M52.8722 32.16L58.516 37.589C58.8323 37.4686 59.125 37.353 59.4602 37.1924C63.3478 35.441 65.3802 32.8162 65.3778 30.1677V27.17C64.9506 26.0299 63.7751 26.0322 62.5453 25.0291L51.0192 30.222L50.9036 30.274L52.8722 32.16Z" fill="#A3A3A3"/>
<path opacity="0.6" d="M52.8722 32.16L58.516 37.589C58.8323 37.4686 59.125 37.353 59.4602 37.1924C63.3478 35.441 65.3802 32.8162 65.3778 30.1677V27.17C64.9506 26.0299 63.7751 26.0322 62.5453 25.0291L51.0192 30.222L50.9036 30.274L52.8722 32.16Z" fill="white"/>
<path d="M52.8721 29.1316L58.5159 34.5606C58.8322 34.4402 59.1249 34.3245 59.4601 34.1617C65.9679 31.2229 67.2708 25.8411 62.5499 21.9912L51.0239 27.1842L50.9082 27.2361L52.8721 29.1316Z" fill="#A3A3A3"/>
<path opacity="0.8" d="M52.8721 29.1316L58.5159 34.5606C58.8322 34.4402 59.1249 34.3245 59.4601 34.1617C65.9679 31.2229 67.2708 25.8411 62.5499 21.9912L51.0239 27.1842L50.9082 27.2361L52.8721 29.1316Z" fill="white"/>
<path d="M58.5066 37.5844V34.5536L50.8965 27.2433V30.2717L58.5066 37.5844Z" fill="#A3A3A3"/>
<path opacity="0.6" d="M58.5066 37.5844V34.5536L50.8965 27.2433V30.2717L58.5066 37.5844Z" fill="white"/>
<path d="M38.5774 24.1747C36.9558 25.1968 35.1547 25.8412 34.4985 27.0828V30.1136C34.4985 31.6927 35.2326 33.2931 36.7551 34.7566C38.8795 36.7936 42.2432 38.2335 46.2394 38.8071C49.9377 39.353 53.7108 39.0782 57.291 38.0022V34.9737L52.3223 33.227L49.4048 30.4157L38.5774 24.1747Z" fill="#A3A3A3"/>
<path opacity="0.6" d="M38.5774 24.1747C36.9558 25.1968 35.1547 25.8412 34.4985 27.0828V30.1136C34.4985 31.6927 35.2326 33.2931 36.7551 34.7566C38.8795 36.7936 42.2432 38.2335 46.2394 38.8071C49.9377 39.353 53.7108 39.0782 57.291 38.0022V34.9737L52.3223 33.227L49.4048 30.4157L38.5774 24.1747Z" fill="black"/>
<path d="M38.5772 21.146C33.9177 24.0777 33.1671 28.2793 36.755 31.7255C38.8794 33.765 42.243 35.2025 46.2393 35.7784C49.9376 36.3231 53.7105 36.0483 57.2909 34.9735L52.3221 30.1983L49.4046 27.3965L38.5772 21.146Z" fill="#A3A3A3"/>
<path opacity="0.3" d="M38.5772 21.146C33.9177 24.0777 33.1671 28.2793 36.755 31.7255C38.8794 33.765 42.243 35.2025 46.2393 35.7784C49.9376 36.3231 53.7105 36.0483 57.2909 34.9735L52.3221 30.1983L49.4046 27.3965L38.5772 21.146Z" fill="black"/>
<path d="M92.6434 54.1736C92.327 53.0781 91.7615 52.0707 90.9911 51.2301C90.0826 50.2315 89.0184 49.3866 87.8399 48.728C86.4719 47.9531 85.0173 47.3423 83.5061 46.9081C81.8415 46.4277 80.1338 46.1114 78.4076 45.964C76.6244 45.8011 74.8301 45.8011 73.047 45.964C71.3215 46.1116 69.6146 46.4279 67.9508 46.9081C66.4397 47.3423 64.985 47.9531 63.617 48.728C62.4376 49.3864 61.3727 50.2313 60.4634 51.2301C59.6937 52.0712 59.1283 53.0785 58.8111 54.1736C58.5291 55.1866 58.5291 56.2575 58.8111 57.2705C59.1258 58.366 59.6915 59.373 60.4634 60.2116C61.373 61.2107 62.4379 62.0564 63.617 62.7161C64.9844 63.4899 66.4382 64.1 67.9484 64.5336C69.6141 65.0129 71.3225 65.3291 73.0493 65.4778C74.8326 65.6383 76.6267 65.6383 78.4099 65.4778C80.1368 65.3294 81.8452 65.0131 83.5108 64.5336C85.0218 64.1011 86.4758 63.4901 87.8423 62.7137C89.0225 62.0556 90.0882 61.2106 90.9982 60.2116C91.7684 59.3718 92.3339 58.3652 92.6505 57.2705C92.9291 56.2567 92.9267 55.1861 92.6434 54.1736Z" fill="#37474F"/>
<path d="M58.5962 54.1711H92.8534V55.9179L58.5962 55.8211V54.1711Z" fill="#37474F"/>
<path d="M73.0447 44.4083L75.7238 54.1711L67.9485 45.3619C69.612 44.8785 71.3189 44.5591 73.0447 44.4083Z" fill="#455A64"/>
<path d="M78.4052 44.4084L75.7284 54.1713L73.0493 44.4084C74.8309 44.2459 76.6236 44.2459 78.4052 44.4084Z" fill="#455A64"/>
<path d="M83.5038 45.3619L75.7285 54.1711L78.4053 44.4083C80.1319 44.5589 81.8395 44.8783 83.5038 45.3619Z" fill="#455A64"/>
<path d="M90.9886 49.684C91.7591 50.5255 92.3246 51.5336 92.641 52.6298L75.7307 54.1759L90.9886 49.684Z" fill="#455A64"/>
<path d="M92.6434 52.6298C92.9243 53.6422 92.9243 54.7119 92.6434 55.7243L75.7332 54.1759L92.6434 52.6298Z" fill="#455A64"/>
<path d="M92.6433 55.7245C92.3263 56.8197 91.7608 57.8269 90.991 58.668L75.7307 54.1831L92.6433 55.7245Z" fill="#455A64"/>
<path d="M90.9934 58.6677C90.0823 59.6654 89.0167 60.5102 87.8375 61.1698L75.7261 54.1758L90.9934 58.6677Z" fill="#455A64"/>
<path d="M75.7284 54.1782L83.5061 62.9898C81.8405 63.4693 80.1321 63.7855 78.4052 63.934L75.7261 54.1711L75.7284 54.1782Z" fill="#455A64"/>
<path d="M75.7259 54.1807L78.405 63.934C76.6218 64.0957 74.8276 64.0957 73.0444 63.934L75.7259 54.1807Z" fill="#455A64"/>
<path d="M75.7236 54.1782L73.0445 63.934C71.3176 63.7853 69.6093 63.4691 67.9436 62.9898L75.7236 54.1782Z" fill="#455A64"/>
<path d="M75.7237 54.1782L67.9342 62.9898C66.4243 62.5543 64.9706 61.9435 63.6028 61.1699L75.7237 54.1782Z" fill="#455A64"/>
<path d="M75.719 54.1758L60.4587 58.6606C59.6872 57.8208 59.1215 56.8131 58.8064 55.7172L75.719 54.1758Z" fill="#455A64"/>
<path d="M75.719 54.1759L58.8087 55.7243C58.5267 54.7121 58.5267 53.642 58.8087 52.6298L75.719 54.1759Z" fill="#455A64"/>
<path d="M75.7191 54.1737L58.8088 52.6276C59.1259 51.5317 59.6913 50.5237 60.4612 49.6818L75.7191 54.1737Z" fill="#455A64"/>
<path d="M63.6145 47.1748L75.7189 54.1641L60.4609 49.6792C61.37 48.6796 62.435 47.8338 63.6145 47.1748Z" fill="#455A64"/>
<path d="M87.8376 47.1749L75.7285 54.1642L83.5038 45.355C85.0153 45.7881 86.4701 46.399 87.8376 47.1749Z" fill="#455A64"/>
<path d="M87.8375 47.1748C89.016 47.8324 90.0802 48.6766 90.9887 49.6745L75.7332 54.1594L87.8375 47.1748Z" fill="#455A64"/>
<path d="M75.7238 54.1736L63.6123 61.17C62.4338 60.5103 61.369 59.6655 60.4587 58.6679L75.719 54.183L75.7238 54.1736Z" fill="#455A64"/>
<path d="M67.9483 45.3619L75.7236 54.1711L63.6145 47.1748C64.9824 46.4013 66.4371 45.7928 67.9483 45.3619Z" fill="#455A64"/>
<path d="M75.7285 54.1782L87.8376 61.1699C86.4702 61.9444 85.0164 62.5552 83.5062 62.9898L75.7285 54.1782Z" fill="#455A64"/>
<path d="M60.6356 50.3402V55.2452C60.5113 54.797 60.4478 54.3342 60.4468 53.8691V50.3402H60.6356Z" fill="#A3A3A3"/>
<path opacity="0.3" d="M60.6356 50.3402V55.2452C60.5113 54.797 60.4478 54.3342 60.4468 53.8691V50.3402H60.6356Z" fill="black"/>
<path d="M75.719 50.345L60.6357 51.7235C60.3854 50.8207 60.3854 49.8669 60.6357 48.9641L75.719 50.345Z" fill="#A3A3A3"/>
<path d="M75.719 50.3401L60.6357 48.9592C60.9192 47.9818 61.424 47.0828 62.111 46.332L75.719 50.3401Z" fill="#A3A3A3"/>
<path d="M64.9224 44.1062L75.7191 50.3401L62.1111 46.3274C62.9228 45.4408 63.8721 44.6908 64.9224 44.1062Z" fill="#A3A3A3"/>
<path d="M68.7888 42.4822L75.7238 50.3377L64.9224 44.1062C66.1425 43.414 67.4404 42.8689 68.7888 42.4822Z" fill="#A3A3A3"/>
<path d="M73.335 41.6324L75.7238 50.3378L68.7888 42.4822C70.2727 42.0506 71.7954 41.7659 73.335 41.6324Z" fill="#A3A3A3"/>
<path d="M78.1289 41.6326L75.7284 50.3379L73.3396 41.6326C74.9327 41.4858 76.5359 41.4858 78.1289 41.6326Z" fill="#A3A3A3"/>
<path d="M82.6635 42.4822L75.7285 50.3378L78.1291 41.6324C79.6647 41.7667 81.1835 42.0513 82.6635 42.4822Z" fill="#A3A3A3"/>
<g opacity="0.2">
<path opacity="0.2" d="M75.7192 50.3451L60.6359 51.7236C60.3857 50.8208 60.3857 49.867 60.6359 48.9642L75.7192 50.3451Z" fill="white"/>
<path opacity="0.2" d="M75.7192 50.3404L60.636 48.9596C60.9195 47.9822 61.4243 47.0832 62.1113 46.3324L75.7192 50.3404Z" fill="white"/>
<path opacity="0.2" d="M64.9226 44.1063L75.7193 50.3403L62.1113 46.3275C62.9231 45.4409 63.8723 44.6909 64.9226 44.1063Z" fill="white"/>
<path opacity="0.2" d="M68.7888 42.4823L75.7238 50.3379L64.9224 44.1063C66.1425 43.4141 67.4404 42.869 68.7888 42.4823Z" fill="white"/>
<path opacity="0.2" d="M73.335 41.6326L75.7238 50.3379L68.7888 42.4823C70.2727 42.0507 71.7954 41.766 73.335 41.6326Z" fill="white"/>
<path opacity="0.2" d="M78.1292 41.6327L75.7286 50.338L73.3398 41.6327C74.9329 41.4859 76.5361 41.4859 78.1292 41.6327Z" fill="white"/>
<path opacity="0.2" d="M82.6638 42.4823L75.7288 50.3379L78.1293 41.6326C79.665 41.7668 81.1837 42.0514 82.6638 42.4823Z" fill="white"/>
</g>
<path d="M88.5149 52.696L86.2512 54.8204L84.5304 56.4468L82.8899 57.9905L82.6704 58.1959V61.72C84.0186 61.3336 85.3164 60.7893 86.5368 60.0984C87.5884 59.5087 88.5383 58.754 89.3505 57.863C90.0372 57.1146 90.5407 56.2169 90.821 55.2406C90.9461 54.7925 91.0104 54.3296 91.0122 53.8644V50.3427L88.5149 52.696Z" fill="#A3A3A3"/>
<path opacity="0.3" d="M88.5149 52.696L86.2512 54.8204L84.5304 56.4468L82.8899 57.9905L82.6704 58.1959V61.72C84.0186 61.3336 85.3164 60.7893 86.5368 60.0984C87.5884 59.5087 88.5383 58.754 89.3505 57.863C90.0372 57.1146 90.5407 56.2169 90.821 55.2406C90.9461 54.7925 91.0104 54.3296 91.0122 53.8644V50.3427L88.5149 52.696Z" fill="black"/>
<path d="M89.3411 46.3369C90.0272 47.0884 90.5318 47.9871 90.8163 48.9641L75.7307 50.3449L89.3411 46.3369Z" fill="#A3A3A3"/>
<path d="M91.0052 50.3473C91.0033 50.8133 90.939 51.2769 90.814 51.7258L86.2441 51.3056L75.7307 50.3426L88.5078 49.1624L90.814 48.9523C90.9403 49.4065 91.0046 49.8758 91.0052 50.3473Z" fill="#A3A3A3"/>
<path d="M90.814 51.7257C90.533 52.7018 90.0297 53.5994 89.3434 54.3482L84.5234 52.9319L75.7307 50.3354L86.2441 51.2985L90.814 51.7257Z" fill="#A3A3A3"/>
<path d="M89.3435 54.3483C88.5314 55.2392 87.5814 55.9939 86.5298 56.5836L82.883 54.4734L75.7332 50.3473L84.5258 52.9438L89.3435 54.3483Z" fill="#A3A3A3"/>
<path d="M86.5299 44.1063L75.7285 50.3426L82.6635 42.4871C84.0114 42.8731 85.3092 43.4166 86.5299 44.1063Z" fill="#A3A3A3"/>
<path d="M86.5298 44.1062C87.5803 44.6943 88.5295 45.4474 89.3411 46.3368L75.7307 50.3496L86.5298 44.1062Z" fill="#A3A3A3"/>
<path d="M86.5298 56.5836C85.3093 57.2738 84.0115 57.8173 82.6634 58.2029L75.7332 50.3473L82.883 54.4734L86.5298 56.5836Z" fill="#A3A3A3"/>
<g opacity="0.2">
<path opacity="0.2" d="M89.3413 46.3368C90.0274 47.0882 90.5321 47.987 90.8166 48.964L75.731 50.3448L89.3413 46.3368Z" fill="white"/>
<path opacity="0.2" d="M91.0054 50.3473C91.0035 50.8133 90.9392 51.2769 90.8142 51.7258L86.2444 51.3056L75.731 50.3426L88.5081 49.1624L90.8142 48.9523C90.9405 49.4065 91.0048 49.8758 91.0054 50.3473Z" fill="white"/>
<path opacity="0.2" d="M90.8142 51.7259C90.5333 52.7019 90.0299 53.5996 89.3437 54.3483L84.5236 52.9321L75.731 50.3356L86.2444 51.2986L90.8142 51.7259Z" fill="white"/>
<path opacity="0.2" d="M89.3435 54.3481C88.5314 55.2391 87.5814 55.9938 86.5298 56.5835L82.883 54.4732L75.7332 50.3472L84.5258 52.9437L89.3435 54.3481Z" fill="white"/>
<path opacity="0.2" d="M86.5299 44.1063L75.7285 50.3426L82.6635 42.4871C84.0114 42.8731 85.3092 43.4166 86.5299 44.1063Z" fill="white"/>
<path opacity="0.2" d="M86.53 44.1062C87.5806 44.6943 88.5298 45.4474 89.3413 46.3368L75.731 50.3496L86.53 44.1062Z" fill="white"/>
<path opacity="0.2" d="M86.5298 56.5835C85.3093 57.2736 84.0115 57.8172 82.6634 58.2027L75.7332 50.3472L82.883 54.4732L86.5298 56.5835Z" fill="white"/>
</g>
<path d="M82.6657 58.2051V61.7293L75.7236 53.8643V50.3378L82.6657 58.2051Z" fill="#263238"/>
<path d="M75.7237 53.8643L60.6357 55.2499V51.7234L75.7237 50.3378V53.8643Z" fill="#A3A3A3"/>
<path opacity="0.1" d="M75.7237 53.8643L60.6357 55.2499V51.7234L75.7237 50.3378V53.8643Z" fill="black"/>
<path d="M41.07 54.1736C40.7536 53.0781 40.1881 52.0707 39.4177 51.2301C38.5088 50.2319 37.4447 49.3871 36.2665 48.728C34.8979 47.9527 33.4424 47.3418 31.9304 46.9081C30.2666 46.4277 28.5597 46.1114 26.8342 45.964C25.051 45.8011 23.2567 45.8011 21.4736 45.964C19.7474 46.1116 18.0397 46.4279 16.375 46.9081C14.8623 47.3419 13.406 47.9528 12.0365 48.728C10.858 49.3866 9.79385 50.2315 8.88533 51.2301C8.11494 52.0707 7.54943 53.0781 7.23302 54.1736C6.95325 55.1869 6.95325 56.2572 7.23302 57.2705C7.54889 58.3655 8.11449 59.3722 8.88533 60.2116C9.79367 61.2111 10.8578 62.0568 12.0365 62.7161C13.4035 63.4908 14.8575 64.1009 16.368 64.5336C18.0336 65.0131 19.742 65.3294 21.4689 65.4778C23.2521 65.6383 25.0462 65.6383 26.8295 65.4778C28.5564 65.3294 30.2647 65.0131 31.9304 64.5336C33.4413 64.1011 34.8954 63.4901 36.2618 62.7137C37.4422 62.0558 38.508 61.2108 39.4177 60.2116C40.1886 59.3722 40.7542 58.3655 41.07 57.2705C41.3498 56.2572 41.3498 55.1869 41.07 54.1736Z" fill="#37474F"/>
<path d="M7.02051 54.1711H41.2777V55.9179L7.02051 55.8211V54.1711Z" fill="#37474F"/>
<path d="M21.4782 44.4083L24.155 54.1711L16.3796 45.3619C18.044 44.8785 19.7516 44.5591 21.4782 44.4083Z" fill="#455A64"/>
<path d="M26.8294 44.4085L24.1527 54.1713L21.4783 44.4085C23.2583 44.2462 25.0494 44.2462 26.8294 44.4085Z" fill="#455A64"/>
<path d="M31.9255 45.3619L24.1526 54.1711L26.8293 44.4083C28.5552 44.5589 30.2621 44.8783 31.9255 45.3619Z" fill="#455A64"/>
<path d="M39.4175 49.684C40.1879 50.5255 40.7534 51.5336 41.0698 52.6298L24.1572 54.1759L39.4175 49.684Z" fill="#455A64"/>
<path d="M41.0698 52.6298C41.3495 53.6423 41.3495 54.7118 41.0698 55.7243L24.1572 54.1759L41.0698 52.6298Z" fill="#455A64"/>
<path d="M41.0698 55.7245C40.7535 56.82 40.188 57.8274 39.4175 58.668L24.1572 54.1831L41.0698 55.7245Z" fill="#455A64"/>
<path d="M39.4175 58.6677C38.5072 59.6654 37.4424 60.5102 36.264 61.1698L24.1501 54.1758L39.4175 58.6677Z" fill="#455A64"/>
<path d="M24.1527 54.1782L31.9303 62.9898C30.2647 63.4693 28.5563 63.7855 26.8294 63.934L24.1479 54.1711L24.1527 54.1782Z" fill="#455A64"/>
<path d="M24.1479 54.1807L26.8294 63.934C25.0493 64.0952 23.2583 64.0952 21.4783 63.934L24.1479 54.1807Z" fill="#455A64"/>
<path d="M24.1454 54.1782L21.4781 63.934C19.7512 63.7855 18.0428 63.4693 16.3772 62.9898L24.1454 54.1782Z" fill="#455A64"/>
<path d="M24.1455 54.1782L16.356 62.9898C14.8498 62.5543 13.4 61.9435 12.0364 61.1699L24.1455 54.1782Z" fill="#455A64"/>
<path d="M24.1431 54.1758L8.88278 58.6606C8.11232 57.8201 7.5468 56.8126 7.23047 55.7172L24.1431 54.1758Z" fill="#455A64"/>
<path d="M24.1431 54.1759L7.23052 55.7243C6.95083 54.7118 6.95083 53.6423 7.23052 52.6298L24.1431 54.1759Z" fill="#455A64"/>
<path d="M24.1431 54.1737L7.23047 52.6276C7.54686 51.5314 8.11235 50.5233 8.88278 49.6818L24.1431 54.1737Z" fill="#455A64"/>
<path d="M12.0365 47.1748L24.1432 54.1641L8.88525 49.6792C9.79342 48.6796 10.8576 47.8338 12.0365 47.1748Z" fill="#455A64"/>
<path d="M36.2617 47.1749L24.1526 54.1642L31.9255 45.355C33.4379 45.7877 34.8935 46.3986 36.2617 47.1749Z" fill="#455A64"/>
<path d="M36.2617 47.1748C37.4421 47.8355 38.5079 48.6828 39.4176 49.684L24.1597 54.1688L36.2617 47.1748Z" fill="#455A64"/>
<path d="M24.1455 54.1736L12.0364 61.17C10.8575 60.5109 9.79261 59.6661 8.88281 58.6679L24.1431 54.183L24.1455 54.1736Z" fill="#455A64"/>
<path d="M16.3702 45.3619L24.1455 54.1711L12.0364 47.1748C13.4043 46.4013 14.859 45.7928 16.3702 45.3619Z" fill="#455A64"/>
<path d="M24.1526 54.1782L36.2617 61.1699C34.8943 61.9444 33.4405 62.5552 31.9303 62.9898L24.1526 54.1782Z" fill="#455A64"/>
<path d="M28.7035 48.1191L30.6556 45.905C30.6556 43.3085 27.4832 43.2447 26.0811 43.1196C24.679 42.9945 22.2737 42.1896 22.2737 45.1449L22.9441 47.5903C24.8797 47.466 26.8229 47.6443 28.7035 48.1191Z" fill="#A3A3A3"/>
<path opacity="0.6" d="M28.7035 48.1191L30.6556 45.905C30.6556 43.3085 27.4832 43.2447 26.0811 43.1196C24.679 42.9945 22.2737 42.1896 22.2737 45.1449L22.9441 47.5903C24.8797 47.466 26.8229 47.6443 28.7035 48.1191Z" fill="white"/>
<path d="M28.7035 44.6421L30.6556 42.4304C27.9223 41.719 25.0904 41.4622 22.2737 41.6703L22.9441 44.1063C24.8801 43.9843 26.8233 44.165 28.7035 44.6421Z" fill="#A3A3A3"/>
<path opacity="0.8" d="M28.7035 44.6421L30.6556 42.4304C27.9223 41.719 25.0904 41.4622 22.2737 41.6703L22.9441 44.1063C24.8801 43.9843 26.8233 44.165 28.7035 44.6421Z" fill="white"/>
<path d="M22.9441 44.1156V47.5949L22.2737 45.1495V41.6702L22.9441 44.1156Z" fill="#A3A3A3"/>
<path d="M30.6557 42.4304L28.7036 44.6422V48.1238L30.6557 45.9097V42.4304Z" fill="#A3A3A3"/>
<g opacity="0.6">
<path opacity="0.6" d="M22.9441 44.1161V47.5954L22.2737 45.15V41.6707L22.9441 44.1161Z" fill="white"/>
<path opacity="0.6" d="M30.6557 42.4307L28.7036 44.6424V48.1241L30.6557 45.91V42.4307Z" fill="white"/>
</g>
<path d="M29.6572 44.9229V48.4022C30.4717 48.6651 31.2577 49.0091 32.0035 49.429C32.6543 49.7985 33.2522 50.2543 33.7809 50.7839L37.6096 49.658C36.8483 48.8809 35.9814 48.215 35.0343 47.6799C33.9886 47.0804 32.8698 44.6491 29.6572 44.9229Z" fill="#A3A3A3"/>
<path opacity="0.6" d="M29.6572 44.9229V48.4022C30.4717 48.6651 31.2577 49.0091 32.0035 49.429C32.6543 49.7985 33.2522 50.2543 33.7809 50.7839L37.6096 49.658C36.8483 48.8809 35.9814 48.215 35.0343 47.6799C33.9886 47.0804 32.8698 44.6491 29.6572 44.9229Z" fill="black"/>
<path d="M31.6093 42.7136L29.6572 44.923C30.4725 45.1839 31.2587 45.528 32.0035 45.9498C32.6543 46.3193 33.2522 46.7751 33.7809 47.3047L37.6096 46.1788C36.8496 45.4003 35.9824 44.7343 35.0343 44.2007C33.9491 43.584 32.8009 43.0854 31.6093 42.7136Z" fill="#A3A3A3"/>
<path opacity="0.3" d="M31.6093 42.7136L29.6572 44.923C30.4725 45.1839 31.2587 45.528 32.0035 45.9498C32.6543 46.3193 33.2522 46.7751 33.7809 47.3047L37.6096 46.1788C36.8496 45.4003 35.9824 44.7343 35.0343 44.2007C33.9491 43.584 32.8009 43.0854 31.6093 42.7136Z" fill="black"/>
<path d="M33.7808 47.3047L37.6094 46.1764V49.6581L33.7808 50.784V47.3047Z" fill="#A3A3A3"/>
<path opacity="0.6" d="M33.7808 47.3047L37.6094 46.1764V49.6581L33.7808 50.784V47.3047Z" fill="black"/>
<path d="M39.531 50.3921H38.2374C38.1902 50.3307 38.1501 50.2694 38.1029 50.208L34.2695 47.8475V51.3292C35.0862 52.3796 35.3955 53.5268 35.183 54.6527L39.4177 55.0469C39.4893 54.6958 39.5249 54.3383 39.5239 53.98L39.531 50.3921Z" fill="#A3A3A3"/>
<path opacity="0.6" d="M39.531 50.3921H38.2374C38.1902 50.3307 38.1501 50.2694 38.1029 50.208L34.2695 47.8475V51.3292C35.0862 52.3796 35.3955 53.5268 35.183 54.6527L39.4177 55.0469C39.4893 54.6958 39.5249 54.3383 39.5239 53.98L39.531 50.3921Z" fill="black"/>
<path d="M35.1806 51.1875L39.4176 51.5676C39.7622 49.9318 39.3255 48.2488 38.1005 46.7286L34.2671 47.8546C35.0838 48.905 35.4048 50.0545 35.1806 51.1875Z" fill="#A3A3A3"/>
<path opacity="0.3" d="M35.1806 51.1875L39.4176 51.5676C39.7622 49.9318 39.3255 48.2488 38.1005 46.7286L34.2671 47.8546C35.0838 48.905 35.4048 50.0545 35.1806 51.1875Z" fill="black"/>
<path d="M39.4177 51.5677V55.0493L35.1807 54.6598V51.1805L39.4177 51.5677Z" fill="#A3A3A3"/>
<path opacity="0.6" d="M39.4177 51.5677V55.0493L35.1807 54.6598V51.1805L39.4177 51.5677Z" fill="black"/>
<path d="M21.8865 47.6942V44.2125C19.526 43.1243 15.1309 44.229 13.658 47.4699L16.6888 49.2214C18.3167 48.4072 20.0769 47.89 21.8865 47.6942Z" fill="#A3A3A3"/>
<path opacity="0.3" d="M21.8865 47.6942V44.2125C19.526 43.1243 15.1309 44.229 13.658 47.4699L16.6888 49.2214C18.3167 48.4072 20.0769 47.89 21.8865 47.6942Z" fill="black"/>
<path d="M21.8866 44.2125L21.2138 41.76C18.3601 42.081 15.747 42.8671 13.6604 43.9906L16.6912 45.7397C18.3184 44.9258 20.0778 44.4086 21.8866 44.2125Z" fill="#A3A3A3"/>
<path opacity="0.1" d="M21.8866 44.2125L21.2138 41.76C18.3601 42.081 15.747 42.8671 13.6604 43.9906L16.6912 45.7397C18.3184 44.9258 20.0778 44.4086 21.8866 44.2125Z" fill="black"/>
<path d="M16.6888 45.7396V49.2212L13.658 47.4698V43.9905L16.6888 45.7396Z" fill="#263238"/>
<path d="M13.5189 46.1788L12.8957 47.9043C10.8586 49.1648 9.5722 50.6826 9.04346 52.2711L13.2923 52.6583C13.6817 51.5701 14.5693 50.5339 15.943 49.6605V46.1788H13.5189Z" fill="#A3A3A3"/>
<path opacity="0.3" d="M13.5189 46.1788L12.8957 47.9043C10.8586 49.1648 9.5722 50.6826 9.04346 52.2711L13.2923 52.6583C13.6817 51.5701 14.5693 50.5339 15.943 49.6605V46.1788H13.5189Z" fill="black"/>
<path d="M15.9336 46.1786L12.8957 44.4248C10.8586 45.6829 9.5722 47.203 9.04346 48.7893L13.2923 49.1787C13.6723 48.0906 14.5598 47.052 15.9336 46.1786Z" fill="#A3A3A3"/>
<path opacity="0.1" d="M15.9336 46.1786L12.8957 44.4248C10.8586 45.6829 9.5722 47.203 9.04346 48.7893L13.2923 49.1787C13.6723 48.0906 14.5598 47.052 15.9336 46.1786Z" fill="black"/>
<path d="M9.04346 48.7893V52.271L13.2828 52.6581V49.1788L9.04346 48.7893Z" fill="#263238"/>
<path d="M13.1153 53.2694V49.7877L11.8548 49.6744L8.76733 50.4794V53.9563C8.78711 55.3378 9.28794 56.6692 10.1836 57.7212L14.017 56.5953C13.2168 55.5449 12.9052 54.3953 13.1153 53.2694Z" fill="#A3A3A3"/>
<path opacity="0.3" d="M13.1153 53.2694V49.7877L11.8548 49.6744L8.76733 50.4794V53.9563C8.78711 55.3378 9.28794 56.6692 10.1836 57.7212L14.017 56.5953C13.2168 55.5449 12.9052 54.3953 13.1153 53.2694Z" fill="black"/>
<path d="M10.1978 54.2421L14.0311 53.1138V56.5954L10.1978 57.7214V54.2421Z" fill="#263238"/>
<path d="M13.1176 49.7878L8.86881 49.4006C8.52419 51.0388 8.96087 52.7194 10.1859 54.2419L14.0193 53.1136C13.2168 52.0632 12.9052 50.9137 13.1176 49.7878Z" fill="#A3A3A3"/>
<path opacity="0.1" d="M13.1176 49.7878L8.86881 49.4006C8.52419 51.0388 8.96087 52.7194 10.1859 54.2419L14.0193 53.1136C13.2168 52.0632 12.9052 50.9137 13.1176 49.7878Z" fill="black"/>
<path d="M17.652 57.7166C15.8557 56.6804 14.9587 55.3231 14.9587 53.9659V50.4795H33.3395V53.9588C33.3395 55.3184 32.4426 56.6757 30.6463 57.7119C27.0584 59.7891 21.2423 59.7891 17.652 57.7166Z" fill="#37474F"/>
<path d="M24.1502 55.7905C29.2252 55.7905 33.3394 53.4148 33.3394 50.4843C33.3394 47.5537 29.2252 45.178 24.1502 45.178C19.0751 45.178 14.9609 47.5537 14.9609 50.4843C14.9609 53.4148 19.0751 55.7905 24.1502 55.7905Z" fill="#455A64"/>
<path d="M16.6889 58.7127V58.2689L10.6863 54.792V58.2689C11.4478 59.0467 12.3156 59.7126 13.2639 60.247C14.3491 60.8637 15.4973 61.3623 16.6889 61.7341L18.6386 59.5247C17.9681 59.3065 17.3161 59.0349 16.6889 58.7127Z" fill="#A3A3A3"/>
<path opacity="0.3" d="M16.6889 58.7127V58.2689L10.6863 54.792V58.2689C11.4478 59.0467 12.3156 59.7126 13.2639 60.247C14.3491 60.8637 15.4973 61.3623 16.6889 61.7341L18.6386 59.5247C17.9681 59.3065 17.3161 59.0349 16.6889 58.7127Z" fill="black"/>
<path d="M16.2852 55.0184C15.6337 54.6499 15.035 54.1949 14.5054 53.6659L10.6768 54.7918C11.4389 55.5689 12.3066 56.2348 13.2544 56.7699C14.3401 57.3857 15.4882 57.8842 16.6794 58.257L18.6291 56.0452C17.8146 55.7843 17.0292 55.4402 16.2852 55.0184Z" fill="#A3A3A3"/>
<path opacity="0.1" d="M16.2852 55.0184C15.6337 54.6499 15.035 54.1949 14.5054 53.6659L10.6768 54.7918C11.4389 55.5689 12.3066 56.2348 13.2544 56.7699C14.3401 57.3857 15.4882 57.8842 16.6794 58.257L18.6291 56.0452C17.8146 55.7843 17.0292 55.4402 16.2852 55.0184Z" fill="black"/>
<path d="M16.689 61.7363V58.257L18.6387 56.0453V59.5269L16.689 61.7363Z" fill="#263238"/>
<path d="M17.6426 58.5382V62.0199C20.376 62.7312 23.2078 62.988 26.0245 62.7799V59.3006L17.6426 58.5382Z" fill="#A3A3A3"/>
<path opacity="0.1" d="M17.6426 58.5382V62.0199C20.376 62.7312 23.2078 62.988 26.0245 62.7799V59.3006L17.6426 58.5382Z" fill="black"/>
<path d="M19.5898 56.3264L17.6377 58.5382C20.3711 59.2492 23.2028 59.5067 26.0196 59.3006L25.354 56.8528C23.4169 56.9784 21.4721 56.8008 19.5898 56.3264Z" fill="#A3A3A3"/>
<path opacity="0.2" d="M19.5898 56.3264L17.6377 58.5382C20.3711 59.2492 23.2028 59.5067 26.0196 59.3006L25.354 56.8528C23.4169 56.9784 21.4721 56.8008 19.5898 56.3264Z" fill="white"/>
<path d="M32.3647 58.2689L35.405 60.0251C37.4421 58.767 38.7285 57.2468 39.2573 55.6583V52.179L35.0085 55.2711C34.6261 56.3593 33.7385 57.3979 32.3647 58.2689Z" fill="#A3A3A3"/>
<path opacity="0.1" d="M32.3647 58.2689L35.405 60.0251C37.4421 58.767 38.7285 57.2468 39.2573 55.6583V52.179L35.0085 55.2711C34.6261 56.3593 33.7385 57.3979 32.3647 58.2689Z" fill="black"/>
<path d="M32.3647 54.7896L35.405 56.5458C37.4421 55.2853 38.7285 53.7676 39.2573 52.179L35.0085 51.7919C34.6261 52.88 33.7385 53.9163 32.3647 54.7896Z" fill="#A3A3A3"/>
<path opacity="0.2" d="M32.3647 54.7896L35.405 56.5458C37.4421 55.2853 38.7285 53.7676 39.2573 52.179L35.0085 51.7919C34.6261 52.88 33.7385 53.9163 32.3647 54.7896Z" fill="white"/>
<path d="M35.4026 56.5457V60.025L32.3647 58.2712V54.7896L35.4026 56.5457Z" fill="#A3A3A3"/>
<path opacity="0.3" d="M35.4026 56.5457V60.025L32.3647 58.2712V54.7896L35.4026 56.5457Z" fill="black"/>
<path d="M27.0844 59.213V60.1572C26.8601 60.1926 26.6382 60.2233 26.4116 60.2493L27.0844 62.6994C29.8343 62.3926 32.4638 61.649 34.6378 60.4735V56.9824L27.0844 59.213Z" fill="#A3A3A3"/>
<path opacity="0.1" d="M27.0844 59.213V60.1572C26.8601 60.1926 26.6382 60.2233 26.4116 60.2493L27.0844 62.6994C29.8343 62.3926 32.4638 61.649 34.6378 60.4735V56.9824L27.0844 59.213Z" fill="black"/>
<path d="M26.4116 56.7581L27.0844 59.213C29.8343 58.9061 32.4638 58.1649 34.6378 56.9894L31.5999 55.2333C29.9761 56.049 28.2186 56.5655 26.4116 56.7581Z" fill="#A3A3A3"/>
<path opacity="0.2" d="M26.4116 56.7581L27.0844 59.213C29.8343 58.9061 32.4638 58.1649 34.6378 56.9894L31.5999 55.2333C29.9761 56.049 28.2186 56.5655 26.4116 56.7581Z" fill="white"/>
<path d="M27.0844 59.2061V62.6854L26.4116 60.24V56.7583L27.0844 59.2061Z" fill="#A3A3A3"/>
<path opacity="0.3" d="M27.0844 59.2061V62.6854L26.4116 60.24V56.7583L27.0844 59.2061Z" fill="black"/>
<path d="M85.9917 35.9246C85.9833 35.7711 85.939 35.6217 85.8623 35.4885C85.7857 35.3552 85.6788 35.2419 85.5503 35.1575L79.1582 31.4681C78.9222 31.3265 78.7168 31.4421 78.7168 31.7254V37.9027C78.7248 38.0562 78.769 38.2058 78.8457 38.3391C78.9224 38.4724 79.0294 38.5857 79.1582 38.6698L81.835 40.2135L82.68 43.6338C82.6772 43.6964 82.6993 43.7576 82.7416 43.8038C82.7839 43.8501 82.8428 43.8777 82.9054 43.8805C82.968 43.8833 83.0292 43.8611 83.0754 43.8189C83.1217 43.7766 83.1493 43.7177 83.1521 43.6551L83.9263 41.4197L85.5621 42.3639C85.7981 42.5055 86.0035 42.3899 86.0035 42.109L85.9917 35.9246Z" fill="#A3A3A3"/>
<path opacity="0.5" d="M85.9917 35.9246C85.9833 35.7711 85.939 35.6217 85.8623 35.4885C85.7857 35.3552 85.6788 35.2419 85.5503 35.1575L79.1582 31.4681C78.9222 31.3265 78.7168 31.4421 78.7168 31.7254V37.9027C78.7248 38.0562 78.769 38.2058 78.8457 38.3391C78.9224 38.4724 79.0294 38.5857 79.1582 38.6698L81.835 40.2135L82.68 43.6338C82.6772 43.6964 82.6993 43.7576 82.7416 43.8038C82.7839 43.8501 82.8428 43.8777 82.9054 43.8805C82.968 43.8833 83.0292 43.8611 83.0754 43.8189C83.1217 43.7766 83.1493 43.7177 83.1521 43.6551L83.9263 41.4197L85.5621 42.3639C85.7981 42.5055 86.0035 42.3899 86.0035 42.109L85.9917 35.9246Z" fill="white"/>
<path d="M81.1384 34.2818C81.2689 34.356 81.3894 34.4464 81.4972 34.5509C81.5935 34.6447 81.6798 34.7483 81.7545 34.8601C81.8193 34.959 81.8724 35.0652 81.9126 35.1764C81.9459 35.2709 81.9673 35.3693 81.9764 35.4691C81.9764 35.5706 81.9882 35.6768 81.9882 35.7877C81.9882 35.8987 81.9882 36.0002 81.9764 36.0946C81.9706 36.1707 81.9489 36.2446 81.9126 36.3118C81.8773 36.3737 81.8213 36.4214 81.7545 36.4463C81.6703 36.4694 81.5814 36.4694 81.4972 36.4463C81.3702 36.4169 81.249 36.3666 81.1384 36.2976C81.0073 36.2242 80.886 36.1346 80.7773 36.0309C80.6805 35.9398 80.595 35.8376 80.5223 35.7264C80.3989 35.5439 80.3219 35.334 80.2981 35.115C80.2981 35.0135 80.2981 34.9073 80.2981 34.7963C80.2981 34.6854 80.2981 34.5839 80.2981 34.4919C80.3054 34.415 80.3278 34.3404 80.3642 34.2723C80.3983 34.2094 80.4547 34.1614 80.5223 34.1378C80.6049 34.1118 80.6927 34.1077 80.7773 34.126C80.9059 34.1562 81.0282 34.209 81.1384 34.2818ZM83.395 35.7193C83.4191 35.7015 83.4478 35.6909 83.4776 35.6886C83.5205 35.6914 83.562 35.7052 83.598 35.7287L83.9355 35.9246C83.9743 35.9466 84.008 35.9764 84.0347 36.012C84.0568 36.0422 84.0691 36.0784 84.0701 36.1158C84.071 36.1237 84.071 36.1316 84.0701 36.1394C84.066 36.1482 84.0604 36.1562 84.0536 36.1631L81.273 38.2166C81.2487 38.2346 81.2203 38.246 81.1903 38.2497C81.1471 38.2468 81.1054 38.2321 81.07 38.2072L80.7324 38.0136C80.6932 37.9914 80.6593 37.9608 80.6333 37.9239C80.6105 37.8948 80.5973 37.8594 80.5955 37.8224C80.5937 37.8139 80.5937 37.805 80.5955 37.7965C80.5988 37.7873 80.6045 37.7791 80.612 37.7729L83.395 35.7193ZM81.4358 35.7193C81.4392 35.6847 81.4392 35.65 81.4358 35.6154V35.3109C81.439 35.274 81.439 35.2369 81.4358 35.2C81.4282 35.1171 81.4032 35.0367 81.3627 34.9639C81.3083 34.8755 81.2307 34.8037 81.1384 34.7562C81.0298 34.6925 80.9543 34.676 80.9024 34.7043C80.88 34.7222 80.8619 34.7448 80.8493 34.7705C80.8366 34.7962 80.8298 34.8244 80.8292 34.853C80.8292 34.8742 80.8292 34.9073 80.8292 34.9569C80.8292 35.0064 80.8292 35.0536 80.8292 35.1056C80.8292 35.1575 80.8292 35.2094 80.8292 35.259C80.8292 35.3086 80.8292 35.3463 80.8292 35.3723C80.838 35.455 80.8629 35.5352 80.9024 35.6083C80.9603 35.6981 81.042 35.7701 81.1384 35.8161C81.247 35.8798 81.3225 35.8963 81.3627 35.868C81.384 35.8509 81.4014 35.8294 81.4136 35.805C81.4259 35.7805 81.4326 35.7537 81.4335 35.7264L81.4358 35.7193ZM83.5744 37.6572C83.7056 37.7314 83.8269 37.8218 83.9355 37.9263C84.0312 38.02 84.1167 38.1237 84.1905 38.2355C84.2571 38.3334 84.3103 38.4398 84.3486 38.5518C84.3814 38.6466 84.4036 38.7448 84.4147 38.8445C84.4147 38.946 84.4147 39.0522 84.4147 39.1632C84.4147 39.2741 84.4147 39.3756 84.4147 39.47C84.4074 39.5461 84.385 39.62 84.3486 39.6872C84.3325 39.719 84.3102 39.7472 84.2831 39.7703C84.2559 39.7934 84.2244 39.8109 84.1905 39.8217C84.1072 39.8461 84.0188 39.8461 83.9355 39.8217C83.8078 39.7923 83.6858 39.7421 83.5744 39.673C83.444 39.5996 83.3235 39.51 83.2156 39.4063C83.1188 39.3147 83.0325 39.2125 82.9583 39.1018C82.893 39.0031 82.8399 38.8969 82.8002 38.7855C82.7672 38.6909 82.7458 38.5926 82.7364 38.4928C82.7364 38.389 82.7364 38.2827 82.7364 38.1718C82.7364 38.0608 82.7364 37.9594 82.7364 37.8673C82.7419 37.7904 82.7636 37.7156 82.8002 37.6478C82.8348 37.5852 82.891 37.5374 82.9583 37.5132C83.0428 37.4924 83.1311 37.4924 83.2156 37.5132C83.3432 37.5421 83.4646 37.5932 83.5744 37.6643V37.6572ZM83.8742 39.1018C83.8761 39.0672 83.8761 39.0325 83.8742 38.9979V38.7005C83.8742 38.6533 83.8742 38.6156 83.8742 38.5919C83.8643 38.5095 83.8395 38.4295 83.801 38.3559C83.7424 38.2667 83.6608 38.195 83.565 38.1482C83.4564 38.0845 83.3808 38.0679 83.3407 38.0963C83.3184 38.1142 83.3003 38.1368 83.2876 38.1625C83.275 38.1882 83.2681 38.2163 83.2675 38.245C83.2651 38.2795 83.2651 38.3142 83.2675 38.3488C83.2675 38.396 83.2675 38.4456 83.2675 38.4975C83.2675 38.5495 83.2675 38.6014 83.2675 38.6533C83.2653 38.6903 83.2653 38.7273 83.2675 38.7643C83.2749 38.8473 83.2998 38.9277 83.3407 39.0003C83.3944 39.0893 83.4722 39.1613 83.565 39.208C83.6735 39.2718 83.7491 39.2883 83.801 39.26C83.8231 39.2413 83.8411 39.2183 83.8537 39.1922C83.8663 39.1662 83.8733 39.1378 83.8742 39.1089V39.1018Z" fill="#FAFAFA"/>
<path d="M58.3389 12.24C58.3303 12.0865 58.2859 11.9372 58.2093 11.804C58.1326 11.6708 58.0258 11.5574 57.8975 11.4728L51.5054 7.78583C51.2693 7.6442 51.064 7.7575 51.064 8.04075V14.218C51.0722 14.3719 51.1164 14.5217 51.1931 14.6553C51.2697 14.789 51.3767 14.9028 51.5054 14.9876L54.1821 16.5313L55.0272 19.9445C55.0364 19.9974 55.0634 20.0455 55.1037 20.081C55.144 20.1164 55.1952 20.1371 55.2488 20.1396C55.3024 20.1421 55.3553 20.1262 55.3987 20.0946C55.442 20.063 55.4734 20.0175 55.4874 19.9657L56.2617 17.7304L57.8975 18.6746C58.1335 18.8162 58.3389 18.7029 58.3389 18.4196V12.24Z" fill="#A3A3A3"/>
<path opacity="0.5" d="M58.3389 12.24C58.3303 12.0865 58.2859 11.9372 58.2093 11.804C58.1326 11.6708 58.0258 11.5574 57.8975 11.4728L51.5054 7.78583C51.2693 7.6442 51.064 7.7575 51.064 8.04075V14.218C51.0722 14.3719 51.1164 14.5217 51.1931 14.6553C51.2697 14.789 51.3767 14.9028 51.5054 14.9876L54.1821 16.5313L55.0272 19.9445C55.0364 19.9974 55.0634 20.0455 55.1037 20.081C55.144 20.1164 55.1952 20.1371 55.2488 20.1396C55.3024 20.1421 55.3553 20.1262 55.3987 20.0946C55.442 20.063 55.4734 20.0175 55.4874 19.9657L56.2617 17.7304L57.8975 18.6746C58.1335 18.8162 58.3389 18.7029 58.3389 18.4196V12.24Z" fill="white"/>
<path d="M53.4858 10.6066C53.6163 10.6808 53.7368 10.7713 53.8446 10.8757C53.9404 10.97 54.0266 11.0736 54.1019 11.1849C54.1676 11.2834 54.2208 11.3896 54.2601 11.5012C54.2933 11.5958 54.3147 11.6941 54.3238 11.7939C54.3238 11.8954 54.3356 12.0017 54.3356 12.1126C54.3356 12.2235 54.3356 12.325 54.3238 12.4195C54.3184 12.4963 54.2966 12.5712 54.2601 12.639C54.2258 12.7013 54.1693 12.7485 54.1019 12.7712C54.0188 12.7983 53.9299 12.8023 53.8446 12.783C53.7172 12.7536 53.5959 12.7025 53.4858 12.6319C53.3542 12.5593 53.2328 12.4696 53.1247 12.3652C53.028 12.2741 52.9424 12.1719 52.8697 12.0607C52.8031 11.9628 52.7499 11.8564 52.7116 11.7444C52.6788 11.6496 52.6566 11.5514 52.6455 11.4517C52.6455 11.3478 52.6455 11.2416 52.6455 11.133C52.6455 11.0244 52.6455 10.9182 52.6455 10.8262C52.6528 10.7493 52.6753 10.6747 52.7116 10.6066C52.7458 10.5437 52.8021 10.4957 52.8697 10.4721C52.9534 10.4512 53.041 10.4512 53.1247 10.4721C53.2519 10.4958 53.3741 10.5413 53.4858 10.6066ZM55.7424 12.0441C55.7671 12.0275 55.7954 12.0169 55.825 12.0135C55.8683 12.0163 55.9099 12.031 55.9454 12.0559L56.283 12.2495C56.3212 12.2722 56.3548 12.3018 56.3821 12.3368C56.4039 12.3672 56.4162 12.4033 56.4175 12.4407C56.4184 12.4493 56.4184 12.458 56.4175 12.4667C56.4128 12.4751 56.4073 12.483 56.401 12.4903L53.6204 14.5439C53.5957 14.5605 53.5674 14.5711 53.5378 14.5745C53.4945 14.5717 53.4528 14.557 53.4174 14.5321L53.0798 14.3385C53.0407 14.3171 53.0068 14.2873 52.9807 14.2512C52.9589 14.2208 52.9465 14.1847 52.9453 14.1473C52.9431 14.1396 52.9431 14.1314 52.9453 14.1237C52.9485 14.1138 52.9542 14.1048 52.9618 14.0977L55.7424 12.0441ZM53.7832 12.0441C53.7867 12.0096 53.7867 11.9748 53.7832 11.9403V11.6358C53.7864 11.5997 53.7864 11.5633 53.7832 11.5272C53.7763 11.4441 53.7513 11.3636 53.7101 11.2912C53.6565 11.2015 53.5788 11.1287 53.4858 11.0811C53.3772 11.0197 53.3017 11.0008 53.2498 11.0315C53.2279 11.0499 53.2101 11.0726 53.1975 11.0982C53.1849 11.1238 53.1778 11.1517 53.1766 11.1802C53.1766 11.1991 53.1766 11.2345 53.1766 11.2817C53.1766 11.3289 53.1766 11.3785 53.1766 11.4328C53.1766 11.4871 53.1766 11.5366 53.1766 11.5862C53.1766 11.6358 53.1766 11.6736 53.1766 11.6972C53.1858 11.7798 53.2107 11.8599 53.2498 11.9332C53.3077 12.023 53.3894 12.0949 53.4858 12.1409C53.5944 12.2047 53.6699 12.2212 53.7101 12.1929C53.7319 12.176 53.7497 12.1546 53.7623 12.1301C53.775 12.1057 53.7821 12.0787 53.7832 12.0512V12.0441ZM55.9218 13.9821C56.0536 14.0563 56.175 14.1476 56.283 14.2535C56.3792 14.3459 56.4647 14.4488 56.5379 14.5604C56.6041 14.6585 56.6573 14.7648 56.696 14.8767C56.7286 14.9716 56.7508 15.0697 56.7621 15.1694C56.7621 15.2732 56.7621 15.3795 56.7621 15.4904C56.7621 15.6013 56.7621 15.7028 56.7621 15.7949C56.7548 15.8717 56.7324 15.9463 56.696 16.0144C56.6619 16.0774 56.6055 16.1253 56.5379 16.149C56.4545 16.1723 56.3663 16.1723 56.283 16.149C56.1552 16.1195 56.0332 16.0693 55.9218 16.0003C55.7923 15.9254 55.672 15.8359 55.563 15.7335C55.4667 15.6405 55.3805 15.5377 55.3057 15.4267C55.2409 15.3277 55.1878 15.2216 55.1476 15.1104C55.1143 15.0158 55.0929 14.9175 55.0838 14.8177C55.0838 14.7162 55.072 14.61 55.072 14.499C55.072 14.3881 55.072 14.2866 55.0838 14.1922C55.0896 14.1153 55.1113 14.0406 55.1476 13.9726C55.183 13.9113 55.239 13.8644 55.3057 13.8404C55.3888 13.8137 55.4775 13.8088 55.563 13.8263C55.6911 13.8595 55.8125 13.9146 55.9218 13.9892V13.9821ZM56.2216 15.4267C56.2235 15.3921 56.2235 15.3574 56.2216 15.3228V15.0254C56.2216 14.9782 56.2216 14.9404 56.2216 14.9168C56.2135 14.834 56.1886 14.7537 56.1484 14.6808C56.0907 14.5903 56.009 14.5175 55.9124 14.4707C55.8038 14.4093 55.7282 14.3904 55.6881 14.4211C55.6654 14.4387 55.647 14.4612 55.6343 14.487C55.6217 14.5128 55.615 14.5411 55.6149 14.5698C55.6124 14.6036 55.6124 14.6375 55.6149 14.6713C55.6149 14.7185 55.6149 14.7681 55.6149 14.8224C55.6149 14.8767 55.6149 14.9263 55.6149 14.9758C55.6126 15.0128 55.6126 15.0498 55.6149 15.0868C55.6219 15.1698 55.6469 15.2504 55.6881 15.3228C55.7417 15.4125 55.8194 15.4853 55.9124 15.5329C56.0209 15.5943 56.0996 15.6108 56.1484 15.5825C56.1707 15.5645 56.1889 15.5419 56.2015 15.5162C56.2141 15.4905 56.221 15.4624 56.2216 15.4337V15.4267Z" fill="#FAFAFA"/>
<path d="M14.4535 35.7336C14.4619 35.5801 14.5062 35.4307 14.5829 35.2974C14.6596 35.1642 14.7664 35.0508 14.8949 34.9664L21.287 31.277C21.5231 31.1354 21.7284 31.2511 21.7284 31.5343V37.7116C21.7204 37.8652 21.6763 38.0147 21.5996 38.148C21.5229 38.2813 21.4158 38.3947 21.287 38.4788L18.6103 40.0225L17.7652 43.4381C17.7681 43.5007 17.7459 43.5618 17.7036 43.6081C17.6613 43.6543 17.6024 43.6819 17.5398 43.6847C17.4772 43.6876 17.4161 43.6654 17.3698 43.6231C17.3235 43.5808 17.296 43.5219 17.2932 43.4593L16.5213 41.224L14.8855 42.1682C14.6495 42.3098 14.4441 42.1941 14.4441 41.9132L14.4535 35.7336Z" fill="#A3A3A3"/>
<g opacity="0.5">
<path opacity="0.5" d="M14.4535 35.7338C14.4619 35.5803 14.5062 35.4309 14.5829 35.2977C14.6596 35.1644 14.7664 35.0511 14.8949 34.9667L21.287 31.2773C21.5231 31.1357 21.7284 31.2513 21.7284 31.5346V37.7119C21.7204 37.8655 21.6763 38.015 21.5996 38.1483C21.5229 38.2816 21.4158 38.3949 21.287 38.479L18.6103 40.0227L17.7652 43.4383C17.7681 43.5009 17.7459 43.5621 17.7036 43.6083C17.6613 43.6546 17.6024 43.6822 17.5398 43.685C17.4772 43.6878 17.4161 43.6656 17.3698 43.6234C17.3235 43.5811 17.296 43.5222 17.2932 43.4596L16.5213 41.2242L14.8855 42.1684C14.6495 42.31 14.4441 42.1944 14.4441 41.9135L14.4535 35.7338Z" fill="white"/>
</g>
<path d="M16.6865 35.2734C16.8142 35.1939 16.9548 35.1372 17.1019 35.1058C17.2007 35.0858 17.3029 35.0907 17.3993 35.1199C17.4769 35.1479 17.5415 35.2033 17.5811 35.2757C17.6233 35.3537 17.6482 35.4398 17.6542 35.5283C17.6637 35.6369 17.6684 35.7549 17.6684 35.8824C17.6684 36.0098 17.6637 36.1326 17.6542 36.2506C17.6439 36.3665 17.6193 36.4806 17.5811 36.5905C17.5358 36.7187 17.4748 36.8409 17.3993 36.954C17.3139 37.0829 17.2141 37.2017 17.1019 37.3081C16.9765 37.4276 16.8369 37.5314 16.6865 37.6173C16.5571 37.6964 16.4161 37.7545 16.2687 37.7896C16.1709 37.8114 16.0693 37.8073 15.9736 37.7778C15.896 37.7498 15.8314 37.6944 15.7918 37.622C15.7489 37.5442 15.7231 37.4581 15.7163 37.3694C15.7163 37.2609 15.7163 37.1334 15.7163 37.0154C15.7163 36.8973 15.7163 36.7652 15.7163 36.6471C15.7276 36.5312 15.753 36.4171 15.7918 36.3072C15.8361 36.1786 15.8972 36.0563 15.9736 35.9437C16.0594 35.8151 16.1583 35.6957 16.2687 35.5873C16.3946 35.466 16.5349 35.3606 16.6865 35.2734ZM19.2829 33.9255C19.3097 33.8739 19.3413 33.8249 19.3774 33.7792C19.4171 33.7339 19.4642 33.6956 19.5166 33.6659L19.9085 33.4299C19.941 33.4058 19.9817 33.3957 20.0218 33.4015C20.0501 33.4015 20.0643 33.4322 20.0643 33.47C20.0659 33.4825 20.0659 33.4952 20.0643 33.5077L20.0454 33.5573L16.8304 39.6425C16.8037 39.6935 16.7721 39.7417 16.736 39.7865C16.6968 39.8324 16.6496 39.8708 16.5968 39.8998L16.2073 40.1359C16.1738 40.1598 16.1324 40.1699 16.0916 40.1642C16.0633 40.1642 16.0491 40.1335 16.0491 40.0958C16.0475 40.0832 16.0475 40.0705 16.0491 40.058L16.068 40.0084L19.2829 33.9255ZM17.0311 36.5527C17.0343 36.5103 17.0343 36.4677 17.0311 36.4253V36.0736C17.0345 36.0335 17.0345 35.9932 17.0311 35.9532C17.0298 35.9201 17.0216 35.8877 17.0069 35.858C16.9923 35.8283 16.9716 35.802 16.9461 35.7809C16.8989 35.7478 16.8116 35.7809 16.6865 35.8399C16.5899 35.8885 16.5075 35.9612 16.4471 36.0509C16.3868 36.1406 16.3505 36.2443 16.3418 36.3521C16.3384 36.3953 16.3384 36.4387 16.3418 36.4819C16.3418 36.5386 16.3418 36.5976 16.3418 36.6589C16.3418 36.7203 16.3418 36.777 16.3418 36.8336C16.3381 36.8729 16.3381 36.9124 16.3418 36.9516C16.3418 36.985 16.3495 37.0178 16.3642 37.0477C16.379 37.0776 16.4004 37.1037 16.4268 37.124C16.474 37.157 16.559 37.1358 16.6865 37.0649C16.793 37.0115 16.8828 36.9298 16.9461 36.8289C16.9931 36.7437 17.022 36.6496 17.0311 36.5527ZM19.5025 35.939C19.6313 35.8595 19.7725 35.802 19.9203 35.7691C20.0183 35.7491 20.1197 35.754 20.2153 35.7832C20.2929 35.8112 20.3576 35.8666 20.3971 35.939C20.44 36.0168 20.4658 36.1029 20.4726 36.1916C20.4726 36.3002 20.4844 36.4276 20.4844 36.5456C20.4844 36.6637 20.4844 36.7958 20.4726 36.9139C20.4615 37.0298 20.4361 37.144 20.3971 37.2538C20.3524 37.383 20.2913 37.506 20.2153 37.6196C20.0345 37.8926 19.7919 38.119 19.5072 38.2806C19.379 38.3602 19.2387 38.4184 19.0917 38.4529C18.9934 38.4759 18.8906 38.4718 18.7943 38.4411C18.7163 38.4139 18.6514 38.3583 18.6126 38.2853C18.5701 38.2074 18.5451 38.1212 18.5394 38.0327C18.5394 37.9265 18.5252 37.7967 18.5252 37.681C18.5252 37.5654 18.5252 37.4284 18.5394 37.3104C18.5496 37.1953 18.5742 37.0819 18.6126 36.9729C18.6578 36.8439 18.7188 36.721 18.7943 36.607C18.8803 36.4778 18.98 36.3583 19.0917 36.2506C19.214 36.1267 19.3521 36.0195 19.5025 35.9319V35.939ZM19.8471 37.2089C19.8503 37.1665 19.8503 37.1239 19.8471 37.0815V36.7321C19.8505 36.6921 19.8505 36.6518 19.8471 36.6117C19.8473 36.5784 19.8397 36.5455 19.8249 36.5155C19.8102 36.4856 19.7887 36.4596 19.7621 36.4394C19.7149 36.4064 19.6299 36.4253 19.5025 36.4984C19.3964 36.5525 19.3067 36.634 19.2428 36.7345C19.1972 36.8186 19.1684 36.9108 19.1578 37.0059C19.1556 37.0484 19.1556 37.0909 19.1578 37.1334C19.1578 37.1924 19.1578 37.2514 19.1578 37.3104C19.1578 37.3694 19.1578 37.4308 19.1578 37.4851C19.1554 37.5244 19.1554 37.5638 19.1578 37.6031C19.1591 37.6362 19.1674 37.6686 19.182 37.6983C19.1966 37.728 19.2174 37.7543 19.2428 37.7754C19.29 37.8085 19.3774 37.7896 19.5025 37.7164C19.609 37.6631 19.6989 37.5814 19.7621 37.4804C19.8108 37.395 19.8398 37.2999 19.8471 37.2018V37.2089Z" fill="#FAFAFA"/>
</svg>
